# xmcd
#
# Track frame offsets:
#	150
#	14178
#	24016
#	43912
#	58849
#	70667
#	89260
#	103118
#	116030
#	136919
#	155401
#	168182
#	183417
#	193593
#
# Disc length: 2803 seconds
#
# Revision: 0
# Processed by: cddbd v1.5.2PL0 Copyright (c) Steve Scherf et al.
# Submitted via: EasyCDDAExtractor 2010.6.0.0
#
DISCID=bc0af10e
DTITLE=Various Artist - Mr Music Country  02 2012
DYEAR=2012
DGENRE=Country
TTITLE0=Miranda Lambert - Only prettier
TTITLE1=Tracy Byrd - Drinkin' Bone
TTITLE2=Carrie Underwood - Temporary home
TTITLE3=Collin Raye - Little red rodeo
TTITLE4=Wade Hayes - Don't stop
TTITLE5=Lonestar - I'm already there
TTITLE6=Ricky Skaggs - From the word love
TTITLE7=Pam Tillis - A whisper and a scream
TTITLE8=Willie Nelson - Across the borderline
TTITLE9=Sara Evans - Some things never change
TTITLE10=Alabama - She ain't your ordinary girl
TTITLE11=Gretchen Wilson - Homewrecker
TTITLE12=Clint Black - One more payment
TTITLE13=Ricky Van Shelton - Backroads
EXTD=
EXTT0=
EXTT1=
EXTT2=
EXTT3=
EXTT4=
EXTT5=
EXTT6=
EXTT7=
EXTT8=
EXTT9=
EXTT10=
EXTT11=
EXTT12=
EXTT13=
PLAYORDER=
